<?xml version="1.0" standalone="no"?>
<!DOCTYPE svg PUBLIC "-//W3C//DTD SVG 20010904//EN"
 "http://www.w3.org/TR/2001/REC-SVG-20010904/DTD/svg10.dtd">
<svg version="1.0" xmlns="http://www.w3.org/2000/svg"
 width="400.000000pt" height="400.000000pt" viewBox="0 0 400.000000 400.000000"
 preserveAspectRatio="xMidYMid meet">

<g transform="translate(0.000000,400.000000) scale(0.100000,-0.100000)"
fill="#000000" stroke="none">
<path d="M0 3733 l0 -265 30 4 c16 2 31 0 33 -5 1 -5 67 -20 146 -33 110 -19
146 -22 157 -13 11 9 14 8 14 -5 0 -9 6 -16 13 -16 6 0 62 -9 122 -21 61 -11
121 -22 135 -24 14 -2 81 -13 150 -25 163 -27 230 -33 230 -20 0 5 -9 10 -20
10 -25 0 -40 29 -40 78 0 31 4 41 20 45 24 6 26 36 5 78 -15 29 -15 30 14 46
30 18 30 18 47 143 l4 35 -19 -40 c-11 -22 -20 -52 -20 -67 -2 -52 -31 -25
-31 28 0 27 -24 33 -34 9 -7 -20 -32 -19 -46 3 -9 13 -10 8 -7 -26 4 -35 2
-44 -15 -53 -16 -8 -23 -8 -29 2 -6 10 -10 10 -23 0 -11 -9 -16 -10 -16 -2 0
6 5 11 10 11 6 0 10 9 10 20 0 11 5 20 10 20 6 0 10 -4 10 -10 0 -5 5 -10 11
-10 6 0 9 10 7 23 -2 12 -9 21 -16 20 -17 -4 -15 24 3 31 8 3 29 3 45 -1 28
-5 30 -3 30 23 0 27 -1 27 -15 8 -15 -19 -15 -19 -35 5 -11 13 -20 29 -20 36
0 7 -6 15 -13 18 -12 5 -29 49 -42 110 -3 15 -11 27 -19 27 -7 0 -17 15 -22
33 l-10 32 -382 2 -382 2 0 -266z m556 229 c-8 -25 -33 -35 -40 -16 -3 8 1 14
8 14 8 0 17 7 20 16 9 23 19 10 12 -14z m-206 2 c0 -8 -4 -12 -10 -9 -5 3 -10
10 -10 16 0 5 5 9 10 9 6 0 10 -7 10 -16z m306 -21 c-10 -10 -19 5 -10 18 6
11 8 11 12 0 2 -7 1 -15 -2 -18z m39 -23 c3 -5 1 -10 -4 -10 -6 0 -11 5 -11
10 0 6 2 10 4 10 3 0 8 -4 11 -10z m83 -40 c13 -17 21 -34 17 -40 -9 -15 -35
-12 -29 3 2 7 -4 22 -15 34 -11 11 -17 24 -14 27 10 10 17 6 41 -24z m-198
-79 c0 -24 -18 -37 -32 -23 -8 8 -7 16 2 27 17 21 30 19 30 -4z m-439 -37 c9
-25 10 -26 23 -9 9 12 20 16 36 12 13 -3 32 1 44 9 19 12 25 12 42 -1 16 -13
17 -16 4 -25 -8 -5 -23 -7 -33 -4 -12 4 -24 -2 -34 -15 -13 -19 -23 -22 -76
-19 -56 3 -62 5 -65 26 -5 34 5 52 28 52 13 0 24 -10 31 -26z m-81 6 c0 -5
-12 -10 -27 -9 -25 0 -26 1 -8 9 27 12 35 12 35 0z m397 -12 c-3 -8 -6 -5 -6
6 -1 11 2 17 5 13 3 -3 4 -12 1 -19z m169 0 c4 -6 3 -8 -3 -5 -19 12 -24 -24
-6 -41 15 -15 17 -15 31 6 16 25 52 30 52 7 0 -10 10 -14 35 -13 22 1 35 6 35
15 0 7 5 13 10 13 6 0 10 -4 10 -10 0 -5 7 -7 15 -4 8 4 15 1 15 -5 0 -6 -6
-11 -14 -11 -19 0 -24 -17 -20 -77 4 -59 -3 -66 -27 -27 -15 24 -17 25 -33 9
-26 -27 -29 -11 -5 31 l21 39 -25 -24 c-17 -15 -33 -22 -47 -18 -15 4 -20 0
-20 -13 0 -30 -28 -31 -58 -2 -16 15 -27 33 -24 40 4 14 -20 16 -33 3 -12 -12
-77 1 -82 16 -6 17 52 26 77 13 25 -14 38 -5 43 30 3 19 12 28 44 39 1 1 5 -4
9 -11z m-566 -81 c0 -21 -12 -28 -27 -16 -19 16 -16 29 7 29 11 0 20 -6 20
-13z m175 -65 c-2 -2 -13 2 -25 8 -17 9 -20 14 -9 20 8 6 17 2 25 -8 7 -9 11
-18 9 -20z m45 18 c0 -5 -5 -10 -11 -10 -5 0 -7 5 -4 10 3 6 8 10 11 10 2 0 4
-4 4 -10z m305 -31 c4 -5 0 -18 -9 -27 -14 -16 -14 -19 3 -29 16 -10 20 -9 25
10 5 21 6 21 28 -6 26 -29 44 -36 35 -12 -12 30 12 24 32 -9 30 -48 27 -56
-24 -56 -39 0 -45 3 -45 21 0 12 -5 19 -12 16 -7 -2 -12 -14 -11 -26 3 -25
-12 -28 -25 -5 -8 14 -10 13 -15 -5 -4 -16 -1 -21 15 -21 12 0 18 -6 16 -16
-5 -24 -21 -19 -39 15 -9 17 -22 37 -28 45 -9 10 -8 16 4 26 17 14 20 40 5 40
-14 0 -13 23 2 38 15 15 35 15 43 1z m-477 -37 c-5 -41 -28 -39 -28 2 0 28 3
34 16 29 9 -3 14 -15 12 -31z m335 14 c9 -7 17 -18 17 -25 0 -6 9 -11 20 -11
11 0 20 -7 20 -15 0 -8 -6 -15 -14 -15 -8 0 -16 7 -20 15 -3 8 -11 15 -17 15
-7 0 -18 8 -25 18 -25 32 -14 43 19 18z m-133 -47 c0 -3 -16 -6 -35 -7 -36 -1
-43 6 -24 25 10 10 59 -4 59 -18z m488 -5 c2 -28 2 -28 -13 -10 -18 24 -20 49
-2 44 6 -3 13 -18 15 -34z m42 15 c0 -11 -4 -18 -10 -14 -5 3 -7 12 -3 20 7
21 13 19 13 -6z m-50 -54 c10 -12 9 -16 -5 -21 -19 -8 -40 9 -31 25 10 15 21
14 36 -4z m-258 -20 c0 -5 -5 -11 -11 -13 -6 -2 -11 4 -11 13 0 9 5 15 11 13
6 -2 11 -8 11 -13z m352 6 c3 -5 -1 -14 -9 -21 -8 -7 -15 -18 -15 -24 0 -7
-11 -23 -26 -36 -19 -18 -27 -21 -33 -12 -4 8 -15 10 -26 6 -13 -5 -16 -4 -11
4 4 7 16 12 27 12 23 0 25 13 4 30 -13 10 -13 15 -3 21 7 4 18 3 24 -2 9 -7
14 -4 19 10 6 21 39 29 49 12z m-154 -60 c0 -5 -22 -11 -50 -13 -49 -3 -56 6
-10 15 44 8 60 7 60 -2z"/>
<path d="M820 3419 c0 -5 5 -7 10 -4 6 3 10 8 10 11 0 2 -4 4 -10 4 -5 0 -10
-5 -10 -11z"/>
<path d="M800 3986 c0 -8 11 -28 25 -44 14 -17 25 -32 25 -36 0 -22 55 -115
71 -119 27 -7 27 39 0 48 -27 8 -32 41 -10 61 15 13 19 28 17 61 l-3 43 -62 0
c-48 0 -63 -3 -63 -14z m88 -18 c-2 -6 -10 -14 -16 -16 -7 -2 -10 2 -6 12 7
18 28 22 22 4z"/>
<path d="M987 3993 c-4 -3 -7 -11 -7 -17 0 -6 5 -5 12 2 6 6 9 14 7 17 -3 3
-9 2 -12 -2z"/>
<path d="M1027 3994 c-10 -11 3 -24 24 -24 10 0 19 -4 19 -10 0 -5 -5 -10 -11
-10 -5 0 -7 -5 -4 -10 8 -13 65 -9 65 4 0 5 10 20 22 33 l21 23 -65 0 c-35 0
-68 -3 -71 -6z"/>
<path d="M1418 3993 c24 -9 12 -22 -16 -17 -26 5 -30 2 -45 -38 -11 -27 -42
-69 -82 -109 -55 -54 -67 -74 -84 -129 -11 -36 -23 -86 -26 -113 -4 -26 -11
-50 -16 -53 -14 -9 -10 -41 6 -48 17 -6 19 -15 6 -35 -8 -12 -13 -12 -24 -3
-12 10 -16 7 -21 -19 -10 -50 -7 -76 9 -93 8 -8 15 -21 15 -28 0 -29 22 -42
92 -54 40 -7 109 -19 153 -28 44 -9 88 -15 98 -12 9 2 41 -4 69 -15 29 -10 82
-20 119 -21 59 -1 66 -3 61 -20 -2 -10 -15 -27 -28 -37 -13 -10 -24 -24 -24
-30 0 -6 -9 -11 -21 -11 -16 0 -19 4 -15 17 8 20 -10 33 -47 33 -15 0 -35 4
-45 10 -9 5 -91 23 -182 39 -91 17 -220 41 -287 55 -67 15 -173 35 -235 46
-62 11 -189 34 -283 51 -93 17 -195 35 -225 39 -108 16 -243 42 -267 51 -13 5
-35 9 -49 9 -22 0 -24 -3 -24 -53 l0 -53 68 -12 c260 -44 633 -110 777 -137
44 -9 107 -20 140 -25 86 -13 277 -47 365 -64 98 -20 175 -33 228 -41 46 -7
47 -8 32 -36 -13 -23 -41 -24 -130 -4 -58 14 -386 78 -465 92 -289 49 -380 63
-396 58 -32 -11 -21 -25 20 -25 21 0 67 -9 102 -19 35 -11 129 -31 209 -45 80
-14 208 -36 285 -50 77 -14 178 -29 225 -34 111 -13 140 -24 140 -56 0 -28
-19 -76 -30 -76 -4 0 -49 9 -101 20 -108 24 -237 49 -291 57 l-38 6 0 -50 c0
-47 22 -144 68 -303 28 -95 39 -118 62 -130 17 -9 19 -14 9 -26 -9 -11 -9 -21
0 -40 6 -14 11 -34 11 -45 0 -34 33 -81 52 -75 23 5 24 -10 2 -18 -27 -10 -12
-192 22 -265 19 -41 24 -65 19 -90 -4 -23 -2 -37 7 -42 11 -7 10 -11 -2 -19
-13 -9 -13 -11 -1 -19 12 -8 12 -12 2 -25 -16 -19 -6 -36 19 -36 10 0 22 -5
25 -11 4 -6 1 -10 -6 -8 -29 3 -39 -2 -39 -21 0 -17 3 -18 25 -8 28 13 45 4
27 -14 -15 -15 -16 -72 -1 -63 6 4 8 13 5 21 -3 8 1 14 9 14 8 0 15 5 15 11 0
5 5 7 10 4 20 -12 10 -54 -15 -71 -22 -14 -30 -15 -50 -4 -27 15 -34 50 -10
50 8 0 15 4 15 8 0 14 -11 21 -26 15 -10 -4 -14 -23 -14 -64 0 -54 2 -59 23
-60 16 -1 18 -2 5 -6 -10 -2 -18 -11 -18 -18 0 -7 -3 -20 -6 -29 -4 -11 0 -16
12 -16 14 0 15 -3 6 -12 -30 -30 -8 -68 39 -68 21 0 59 72 59 111 0 10 11 29
25 41 14 12 25 27 25 34 0 8 6 11 14 8 11 -4 16 4 20 30 3 20 9 52 12 72 3 19
8 42 11 50 5 15 -50 44 -83 44 -16 0 -16 -1 -1 -18 28 -31 21 -45 -13 -25 -30
17 -39 33 -20 33 6 0 10 7 10 15 0 42 99 107 101 66 0 -12 3 -11 9 4 5 11 7
38 4 60 -5 44 -14 210 -19 355 -2 75 1 108 16 150 10 30 19 71 19 91 0 33 27
153 51 227 6 18 23 39 37 47 31 16 125 105 147 138 12 18 25 23 77 25 34 2 67
7 73 12 5 4 26 10 45 13 19 3 50 9 68 13 40 8 62 -8 62 -46 0 -14 3 -30 7 -34
4 -4 8 -22 8 -39 0 -25 5 -33 23 -35 15 -2 22 -10 22 -25 0 -16 -3 -18 -9 -8
-6 10 -10 10 -16 1 -4 -6 -2 -17 4 -23 13 -13 15 -70 2 -95 -4 -9 -15 -30 -23
-47 -9 -16 -19 -44 -22 -61 -8 -34 -44 -53 -58 -31 -4 7 -8 8 -8 2 0 -13 -70
-41 -138 -54 -29 -6 -69 -18 -90 -27 -20 -8 -44 -17 -52 -18 -8 -2 -32 -6 -53
-10 -32 -6 -38 -11 -35 -29 2 -16 -2 -22 -15 -20 -15 1 -17 -4 -13 -22 4 -14
1 -25 -7 -28 -7 -3 -4 -6 7 -6 15 -1 17 -6 13 -30 -7 -33 13 -57 38 -48 8 4
17 2 20 -3 4 -6 32 -10 63 -11 52 0 120 -16 82 -19 -8 0 -24 -8 -35 -16 l-20
-16 20 2 c35 4 39 0 20 -13 -16 -13 -15 -14 12 -10 74 11 36 -47 -66 -101 -38
-20 -76 -36 -85 -36 -9 0 -16 -7 -16 -15 0 -20 4 -30 10 -29 35 9 131 13 126
5 -3 -5 0 -12 6 -14 10 -4 10 -8 -1 -15 -24 -17 -2 -31 43 -28 53 3 218 70
245 100 11 11 39 41 63 66 54 55 72 84 89 138 13 46 51 87 72 79 21 -8 49 -74
41 -99 -3 -12 -7 -84 -9 -159 -1 -95 -6 -143 -15 -154 -9 -10 -11 -31 -7 -65
5 -42 3 -50 -12 -55 -11 -3 -21 -15 -24 -25 -6 -24 -20 -25 -41 -5 -20 20 -27
19 -66 -10 -36 -26 -60 -71 -60 -112 0 -26 37 -47 110 -64 19 -4 49 -11 65
-15 44 -10 55 -22 55 -64 0 -33 3 -38 28 -43 28 -6 92 11 92 25 0 4 11 8 25 8
14 0 25 -5 25 -10 0 -15 -79 -49 -115 -50 -16 0 -39 -7 -49 -15 -11 -8 -29
-12 -43 -9 -15 4 -25 1 -29 -9 -3 -9 -19 -19 -35 -22 -16 -4 -29 -11 -29 -17
0 -6 -3 -8 -6 -5 -4 3 -18 -3 -32 -13 -13 -11 -31 -20 -38 -20 -7 0 -17 -6
-21 -13 -35 -55 -125 -87 -136 -48 -6 23 -52 24 -52 1 -1 -8 -7 -25 -13 -38
-7 -12 -9 -28 -5 -35 14 -21 9 -61 -9 -75 -18 -13 -24 -43 -11 -56 11 -10 3
-100 -9 -107 -6 -4 -9 -22 -5 -41 4 -28 2 -34 -13 -35 -10 -1 -22 9 -29 23 -6
13 -17 24 -26 24 -8 0 -15 5 -15 10 0 34 -41 49 -237 91 -112 23 -205 40 -208
37 -3 -3 -11 -30 -17 -59 -11 -52 -10 -57 16 -96 15 -23 25 -47 21 -52 -3 -6
-9 -79 -12 -162 -5 -151 -5 -151 16 -144 12 4 46 7 76 8 39 1 55 5 55 14 0 8
7 25 16 39 15 23 15 26 0 43 -17 18 -16 20 6 26 13 4 42 20 66 36 44 29 46 28
54 -16 3 -14 16 2 48 59 50 87 96 146 114 146 7 0 23 -18 35 -41 18 -31 26
-38 33 -28 7 10 8 8 4 -7 -4 -11 0 -28 8 -39 12 -16 9 -28 -21 -94 -62 -135
-62 -135 -52 -147 6 -8 6 -28 -2 -59 -11 -42 -17 -49 -55 -65 -40 -18 -74 -59
-74 -92 0 -7 -14 -40 -30 -72 -17 -32 -30 -71 -30 -86 0 -22 -8 -30 -42 -46
-24 -10 -50 -27 -58 -37 -25 -30 -132 -51 -171 -33 -18 8 -49 -17 -49 -40 0
-12 61 -14 405 -14 l404 0 -24 36 c-25 37 -30 64 -40 199 -8 118 -15 155 -29
155 -14 0 -80 -71 -97 -104 -21 -40 -52 -66 -80 -66 -34 0 -44 13 -24 30 20
16 19 31 -1 23 -18 -7 -18 -4 33 187 34 132 69 235 85 254 8 10 58 -30 58 -45
0 -4 21 -30 46 -56 25 -26 49 -57 54 -69 5 -11 25 -29 45 -38 20 -10 34 -20
31 -23 -3 -3 1 -15 9 -27 20 -27 19 -36 -4 -36 -11 0 -23 -5 -27 -11 -5 -8 4
-10 28 -7 24 2 34 0 31 -8 -2 -6 3 -17 12 -24 22 -18 19 -26 -17 -44 -20 -9
-26 -16 -15 -16 9 0 17 -7 17 -15 0 -8 3 -15 8 -15 4 0 8 -12 9 -27 1 -16 11
-34 27 -46 32 -23 25 -38 -13 -31 -26 5 -28 4 -28 -26 0 -17 -6 -35 -13 -40
-7 -4 -15 -31 -18 -59 l-5 -51 857 0 856 0 0 34 c0 39 -22 97 -44 115 -9 7
-13 17 -10 22 3 5 1 9 -4 9 -6 0 -13 7 -16 15 -5 14 -1 13 24 -2 17 -9 30 -21
30 -25 0 -4 5 -8 10 -8 6 0 10 121 10 344 l0 344 -42 5 c-24 3 -106 15 -183
27 -116 19 -140 20 -144 9 -6 -18 -40 135 -41 184 0 20 5 37 10 37 6 0 10 -15
10 -34 0 -21 6 -36 16 -40 8 -3 86 -17 172 -31 86 -14 167 -28 180 -31 l22 -6
0 740 0 740 -52 7 c-29 3 -89 13 -133 21 -44 8 -101 15 -127 16 -26 0 -53 5
-60 9 -15 9 -24 157 -11 176 7 9 28 9 93 -3 321 -56 290 -55 290 -4 0 33 -4
40 -22 45 -141 32 -303 61 -375 67 -13 1 -23 6 -23 10 0 4 -6 8 -14 8 -8 0
-18 10 -22 22 -3 12 -18 33 -32 47 -13 14 -22 21 -18 14 3 -6 2 -13 -4 -15 -7
-2 -6 -23 2 -60 9 -45 9 -61 0 -70 -9 -9 -12 -7 -12 10 0 13 -6 22 -15 22 -14
0 -17 4 -19 33 -1 6 -9 20 -19 30 -13 13 -15 22 -8 35 11 20 4 36 -21 45 -11
4 -15 13 -11 28 4 15 2 20 -5 15 -20 -12 -62 5 -62 25 0 10 -6 19 -14 19 -16
0 -31 -30 -19 -39 4 -3 17 -16 27 -28 l19 -23 -41 4 c-50 4 -56 -1 -39 -28 21
-32 27 -69 15 -83 -8 -11 -4 -21 20 -45 21 -20 32 -40 32 -59 0 -15 5 -31 11
-34 5 -4 14 -17 20 -28 11 -28 27 -53 60 -97 15 -19 29 -45 33 -57 4 -13 12
-23 17 -23 5 0 9 -5 9 -11 0 -6 11 -38 24 -72 85 -224 114 -321 121 -417 3
-41 9 -109 13 -150 10 -105 9 -220 -2 -220 -11 -1 -13 11 -21 80 -14 131 -18
151 -34 160 -13 8 -14 11 -2 19 15 10 4 38 -23 61 -9 7 -16 20 -16 29 0 16
-12 29 -63 70 -9 7 -37 17 -62 22 -25 5 -56 16 -69 24 -21 14 -23 20 -15 44 6
16 32 53 59 84 37 41 50 63 50 86 0 22 -5 31 -16 31 -10 0 -14 6 -11 14 4 9
-5 21 -19 31 -14 9 -39 37 -55 63 -27 43 -28 48 -12 59 12 9 13 13 3 13 -7 0
-11 3 -7 6 16 17 -42 113 -69 114 -6 0 -17 7 -24 15 -19 23 -128 67 -170 70
-58 3 -151 19 -156 26 -3 5 -15 9 -26 9 -25 0 -59 36 -51 56 3 8 0 21 -7 29
-11 13 -9 20 10 40 18 19 27 22 42 14 14 -7 20 -6 24 6 4 10 13 13 25 10 21
-7 27 10 7 18 -10 4 -10 7 0 18 6 7 12 21 12 31 0 11 5 15 15 12 9 -4 15 -19
15 -36 0 -17 4 -27 10 -23 6 3 10 19 10 36 0 21 -5 29 -17 29 -14 0 -15 2 -4
9 10 7 12 20 7 50 l-6 42 37 -7 c21 -4 40 -11 41 -15 2 -5 8 -7 13 -4 12 8 80
-101 73 -118 -3 -10 5 -16 26 -21 36 -7 50 -1 50 20 0 8 11 19 25 24 21 8 24
14 19 35 -5 20 -3 25 14 25 13 0 22 9 26 27 8 28 -10 48 -29 34 -13 -11 -134
-5 -168 8 -15 6 -39 8 -54 5 -20 -4 -40 3 -71 23 l-43 28 71 3 c58 2 71 6 66
17 -3 8 -9 22 -12 30 -10 25 12 17 52 -20 39 -36 49 -41 58 -26 3 4 17 6 31 3
20 -3 24 -1 19 11 -3 8 -1 18 5 21 6 4 8 13 4 21 -3 8 0 15 6 15 6 0 11 -4 11
-10 0 -6 9 -6 26 0 23 9 25 8 18 -12 -6 -21 -5 -22 11 -8 17 14 18 14 5 -10
-8 -15 -15 -20 -18 -12 -2 6 -12 12 -22 12 -26 0 -22 -35 6 -61 19 -18 25 -19
45 -8 13 7 37 14 53 16 16 1 30 4 31 5 1 2 27 33 58 71 32 37 57 71 57 75 0 4
24 33 54 65 29 31 60 72 67 90 7 17 20 39 27 47 13 12 12 15 -7 24 -31 13 -26
24 14 32 51 9 56 41 14 99 -18 25 -36 45 -41 45 -4 0 -8 7 -8 15 0 8 4 15 8
15 11 0 57 87 66 123 4 16 1 38 -8 55 -7 15 -17 51 -21 80 l-7 52 -184 0
c-123 0 -184 -4 -184 -11 0 -5 -6 -7 -12 -3 -7 5 -21 9 -31 9 -15 1 -17 -3
-12 -23 5 -22 4 -24 -10 -12 -8 7 -18 10 -22 7 -3 -4 -13 -1 -22 6 -14 11 -15
10 -1 -8 8 -11 24 -29 35 -40 12 -11 16 -16 9 -12 -15 10 -26 -6 -18 -27 3 -9
2 -16 -4 -16 -16 0 -35 29 -28 45 3 9 2 23 -3 33 -5 9 -12 25 -15 35 -4 14
-18 17 -81 17 -60 0 -75 -3 -75 -15 0 -8 -4 -15 -10 -15 -5 0 -10 6 -10 14 0
12 -24 15 -135 15 l-135 1 -1 -33 c-1 -17 0 -61 1 -96 2 -51 -1 -63 -12 -59
-10 4 -14 -4 -14 -31 -1 -20 -4 -80 -9 -133 l-8 -98 30 0 c16 0 38 7 49 15 31
24 79 19 98 -10 14 -22 15 -25 1 -25 -8 0 -15 5 -15 10 0 6 -12 10 -26 10 -14
0 -23 -4 -19 -9 3 -5 0 -13 -6 -16 -6 -4 1 -13 17 -22 23 -11 33 -12 50 -2 41
22 166 -24 204 -75 13 -18 37 -38 52 -44 16 -6 28 -16 28 -22 0 -7 -7 -10 -16
-6 -14 5 -15 4 -4 -9 8 -9 8 -15 2 -15 -6 0 -13 8 -16 18 -8 24 -54 67 -62 59
-4 -4 -1 -14 6 -23 18 -21 5 -28 -73 -44 -42 -8 -63 -8 -70 -1 -8 8 -5 11 8
12 11 1 23 1 28 0 10 -1 9 17 -1 23 -5 3 -24 1 -43 -3 -19 -5 -60 -14 -91 -21
-38 -7 -58 -16 -58 -26 0 -15 -20 -18 -69 -8 -47 10 -37 24 16 24 35 0 44 3
35 12 -12 12 -161 47 -203 48 -26 0 -50 29 -26 31 7 1 1 5 -13 9 -37 12 -128
11 -169 -1 -24 -7 -58 -8 -104 -1 -54 7 -71 6 -85 -5 -12 -11 -14 -16 -4 -19
14 -7 16 -44 2 -44 -5 0 -9 5 -7 12 1 7 -2 12 -8 13 -5 0 -16 4 -22 8 -13 8
-68 -16 -68 -30 0 -4 -13 -7 -29 -5 -18 2 -26 0 -21 -7 3 -7 -2 -11 -14 -11
-31 0 -34 16 -6 34 14 9 25 23 25 31 0 10 11 15 34 15 37 0 46 12 46 61 0 31
-17 39 -26 14 -5 -13 -12 -12 -45 7 -44 24 -48 33 -19 41 16 4 20 14 20 44 0
43 21 80 38 69 15 -9 16 -52 2 -61 -6 -4 -6 -12 -1 -23 5 -9 12 -25 15 -34 3
-12 15 -18 32 -18 15 0 36 -8 47 -17 19 -17 19 -17 13 4 -7 23 -9 23 117 9 17
-2 31 3 36 12 5 9 24 14 52 14 58 0 111 -6 124 -14 23 -14 71 -17 85 -5 8 6
27 37 42 67 24 47 28 71 33 165 3 61 8 138 11 172 l6 63 -371 0 -372 0 3 -38
c2 -27 -1 -37 -12 -37 -10 0 -16 12 -18 38 l-3 37 -75 0 -75 0 20 -26 c12 -15
21 -32 21 -39 0 -7 11 -23 25 -36 14 -13 31 -33 37 -43 9 -16 6 -16 -22 4 -18
13 -35 32 -38 42 -2 10 -8 18 -13 18 -5 0 -9 6 -9 13 0 7 -13 25 -28 40 -28
27 -30 27 -163 26 -73 0 -128 -3 -121 -6z m1544 -35 c-3 -23 1 -28 17 -28 22
0 28 -14 11 -25 -21 -13 -88 55 -75 76 4 5 17 9 28 7 18 -2 21 -9 19 -30z
m126 -3 c19 -42 14 -48 -20 -24 -26 19 -30 20 -25 6 3 -9 2 -17 -3 -17 -15 0
-12 21 7 42 21 24 28 23 41 -7z m-224 -12 c9 -23 -12 -43 -24 -23 -5 8 -10 21
-10 28 0 18 27 15 34 -5z m270 -5 c-3 -4 -9 -8 -15 -8 -5 0 -9 4 -9 8 0 5 7 9
15 9 8 0 12 -4 9 -9z m-1219 -100 c7 -62 3 -128 -8 -128 -4 0 -6 19 -5 43 1
23 -1 63 -5 90 -5 29 -5 47 2 47 5 0 12 -24 16 -52z m1065 26 c0 -8 -4 -12
-10 -9 -5 3 -10 13 -10 21 0 8 5 12 10 9 6 -3 10 -13 10 -21z m-40 -14 c0 -13
-7 -20 -20 -20 -13 0 -20 7 -20 20 0 13 7 20 20 20 13 0 20 -7 20 -20z m-101
-15 c5 2 6 -7 3 -21 -3 -15 -10 -23 -17 -20 -8 3 -16 -2 -19 -10 -10 -27 -21
-14 -21 25 0 37 1 38 23 30 13 -5 27 -7 31 -4z m-69 -10 c0 -8 -4 -15 -10 -15
-5 0 -10 7 -10 15 0 8 5 15 10 15 6 0 10 -7 10 -15z m160 -25 c0 -5 -7 -10
-16 -10 -10 0 -14 -6 -10 -15 7 -18 -3 -19 -26 -1 -27 20 -22 32 17 34 19 2
35 -2 35 -8z m100 -10 c0 -5 -4 -10 -10 -10 -5 0 -10 5 -10 10 0 6 5 10 10 10
6 0 10 -4 10 -10z m-170 -46 c0 -15 -6 -24 -16 -24 -11 0 -14 5 -10 16 3 9 6
22 6 30 0 9 5 12 10 9 6 -3 10 -17 10 -31z m117 -10 c-9 -9 -28 6 -21 18 4 6
10 6 17 -1 6 -6 8 -13 4 -17z m26 -38 c6 -16 -2 -28 -14 -20 -12 7 -11 34 0
34 5 0 11 -6 14 -14z m-145 -25 c3 -8 -1 -12 -9 -9 -7 2 -15 10 -17 17 -3 8 1
12 9 9 7 -2 15 -10 17 -17z m762 -50 c0 -19 -25 -35 -40 -26 -13 8 -1 33 18
38 10 3 18 5 20 6 1 0 2 -8 2 -18z m-635 -41 c-3 -5 -10 -10 -16 -10 -5 0 -9
5 -9 10 0 6 7 10 16 10 8 0 12 -4 9 -10z m299 -96 c9 -3 16 -15 16 -25 0 -25
-36 -25 -49 0 -15 27 0 38 33 25z m-1264 -35 c0 -5 -6 -9 -14 -9 -8 0 -14 9
-13 19 1 15 4 17 14 9 7 -6 13 -14 13 -19z m1350 -19 c0 -5 4 -9 9 -7 5 1 11
-2 13 -8 1 -5 -7 -11 -19 -13 -18 -3 -23 2 -23 17 0 12 5 21 10 21 6 0 10 -4
10 -10z m-44 -29 c-12 -19 -24 -12 -19 10 4 13 9 17 15 11 6 -6 7 -15 4 -21z
m-846 5 c0 -2 -7 -6 -15 -10 -8 -3 -15 -1 -15 4 0 6 7 10 15 10 8 0 15 -2 15
-4z m-250 -36 c0 -5 -7 -7 -15 -4 -8 4 -15 8 -15 10 0 2 7 4 15 4 8 0 15 -4
15 -10z m826 -39 c-14 -16 -15 -23 -6 -41 13 -24 8 -36 -10 -25 -6 4 -9 14 -6
22 3 8 2 11 -3 8 -5 -3 -12 -1 -16 5 -4 6 -11 8 -16 5 -5 -4 -9 -1 -9 5 0 6 8
13 18 16 9 3 24 9 32 14 26 15 34 11 16 -9z m-886 0 c0 -5 11 -12 24 -15 13
-3 32 -9 42 -13 14 -5 16 -3 11 11 -6 15 -4 17 10 11 10 -4 38 -10 63 -13 70
-8 20 -19 -79 -16 l-85 2 24 -19 c14 -10 35 -22 48 -25 23 -6 31 -24 11 -24
-13 0 -88 41 -90 49 -7 30 -3 61 8 61 7 0 13 -4 13 -9z m1175 -1 c3 -5 1 -10
-4 -10 -6 0 -11 5 -11 10 0 6 2 10 4 10 3 0 8 -4 11 -10z m-1515 -20 c8 -5 12
-11 9 -14 -3 -3 -14 1 -25 9 -21 16 -8 20 16 5z m1354 -30 c7 0 27 -16 44 -36
18 -20 25 -33 16 -30 -8 3 -20 6 -25 6 -5 0 -9 7 -9 15 0 8 -5 15 -11 15 -5 0
-7 5 -3 11 5 8 -1 10 -18 6 -31 -8 -42 1 -26 21 8 9 14 10 16 3 2 -6 9 -11 16
-11z m-417 -12 c-3 -8 -6 -5 -6 6 -1 11 2 17 5 13 3 -3 4 -12 1 -19z m-947 -6
c3 -2 0 -7 -7 -9 -7 -2 -9 -11 -6 -19 4 -12 0 -13 -21 -4 -25 9 -37 -2 -16
-15 6 -3 10 -14 10 -23 0 -14 -2 -14 -14 -2 -8 8 -17 25 -20 36 -5 17 -1 23
16 28 22 7 22 7 3 17 -15 7 -11 7 15 3 19 -4 37 -9 40 -12z m925 -42 c3 -5 1
-10 -4 -10 -6 0 -11 5 -11 10 0 6 2 10 4 10 3 0 8 -4 11 -10z m60 -10 c3 -5
-1 -10 -11 -10 -13 0 -14 -3 -4 -15 10 -12 9 -15 -7 -15 -26 0 -32 7 -26 31 6
20 37 26 48 9z m50 -20 c3 -5 -1 -10 -10 -10 -9 0 -13 5 -10 10 3 6 8 10 10
10 2 0 7 -4 10 -10z m305 0 c0 -5 -9 -10 -19 -10 -11 0 -23 5 -26 10 -4 6 5
10 19 10 14 0 26 -4 26 -10z m-2120 -20 c12 -8 11 -10 -7 -10 -13 0 -23 5 -23
10 0 13 11 13 30 0z m2155 0 c3 -5 -3 -10 -15 -10 -12 0 -18 5 -15 10 3 6 10
10 15 10 5 0 12 -4 15 -10z m-1985 -30 c12 -8 10 -10 -10 -9 -14 1 -36 5 -50
9 -23 7 -22 8 10 9 19 0 42 -4 50 -9z m225 -39 c28 -9 28 -9 5 -10 -14 0 -54
6 -90 14 l-65 14 60 -5 c33 -2 74 -8 90 -13z m62 -17 c-3 -3 -12 -4 -19 -1 -8
3 -5 6 6 6 11 1 17 -2 13 -5z m133 -24 c0 -12 -17 -12 -45 0 -17 7 -15 9 13 9
17 1 32 -3 32 -9z m1546 -137 c-3 -4 -13 2 -21 13 -22 29 -18 41 6 15 12 -12
18 -25 15 -28z m461 -199 c-3 -3 -12 -4 -19 -1 -8 3 -5 6 6 6 11 1 17 -2 13
-5z m-2139 -389 c-1 -14 -6 -25 -10 -25 -4 0 -8 11 -8 25 0 14 4 25 10 25 5 0
9 -11 8 -25z m2298 -105 c36 -14 53 -38 54 -77 0 -17 4 -34 9 -37 4 -3 11 -18
14 -33 3 -16 9 -37 13 -48 7 -20 7 -20 -14 -1 -12 11 -22 25 -22 32 0 22 -20
67 -27 60 -6 -5 -9 -25 -12 -62 -1 -18 -29 -25 -43 -10 -8 7 -24 18 -36 25
-30 16 -27 64 3 70 11 2 23 8 27 15 5 7 8 6 8 -4 0 -13 2 -13 9 -1 8 13 12 13
26 1 15 -13 17 -12 14 5 -8 40 -141 29 -199 -17 -39 -31 -39 0 1 34 64 54 118
69 175 48z m40 -177 c-11 -11 -19 6 -11 24 8 17 8 17 12 0 3 -10 2 -21 -1 -24z
m-276 -178 c0 -8 -2 -15 -4 -15 -2 0 -6 7 -10 15 -3 8 -1 15 4 15 6 0 10 -7
10 -15z m-2070 -56 c0 -23 -6 -24 -27 -3 -14 13 -14 17 -3 24 18 11 30 3 30
-21z m1335 -9 c11 -17 -5 -32 -21 -19 -7 6 -11 15 -8 20 7 12 21 11 29 -1z
m-1268 -160 c2 -22 0 -40 -5 -40 -10 0 -21 77 -13 86 9 8 15 -7 18 -46z m2218
-168 c-15 -16 -16 -15 -4 12 7 15 15 23 17 16 3 -7 -3 -19 -13 -28z m-1356
-258 c22 -5 30 -11 27 -20 -3 -8 -2 -14 3 -14 5 0 11 10 15 23 5 18 8 20 16 7
16 -24 12 -29 -36 -51 -29 -14 -43 -27 -40 -35 3 -8 -5 -24 -18 -36 -25 -25
-44 -112 -26 -123 6 -4 8 -9 6 -13 -2 -4 -1 -26 3 -49 5 -25 4 -44 -1 -45 -5
-2 10 -16 34 -32 40 -26 45 -27 93 -16 97 22 104 22 119 8 12 -13 11 -21 -9
-62 -12 -25 -30 -55 -40 -66 -9 -10 -24 -34 -33 -52 -10 -18 -24 -33 -32 -34
-33 -2 -38 -5 -43 -24 -3 -11 -13 -23 -24 -27 -10 -4 -24 -13 -31 -20 -19 -18
-96 -17 -112 2 -7 8 -16 15 -21 15 -10 0 -53 35 -77 62 -9 9 -19 15 -24 12 -4
-3 -8 1 -8 8 0 7 -12 25 -28 39 -16 15 -28 39 -30 55 -1 16 -7 58 -13 94 -6
36 -10 102 -8 147 3 66 8 85 23 96 11 8 16 19 12 25 -3 6 -1 14 4 17 6 4 15
18 20 31 5 13 17 24 27 24 22 0 88 23 128 44 32 17 73 20 124 10z m141 -4 c0
-5 -4 -10 -10 -10 -5 0 -10 5 -10 10 0 6 5 10 10 10 6 0 10 -4 10 -10z m45 0
c3 -5 -1 -10 -9 -10 -9 0 -16 5 -16 10 0 6 4 10 9 10 6 0 13 -4 16 -10z m-85
-10 c0 -5 -5 -10 -11 -10 -5 0 -7 5 -4 10 3 6 8 10 11 10 2 0 4 -4 4 -10z
m-70 -70 c0 -5 -4 -10 -9 -10 -6 0 -13 5 -16 10 -3 6 1 10 9 10 9 0 16 -4 16
-10z m-385 -200 c1 -22 -1 -40 -5 -40 -11 0 -21 57 -13 75 8 24 15 11 18 -35z
m1595 -210 c0 -5 6 -10 14 -10 7 0 16 -9 19 -20 6 -22 -8 -28 -16 -7 -3 6 -6
2 -6 -10 -1 -31 -21 -29 -21 1 0 13 -3 31 -6 40 -3 9 -1 16 5 16 6 0 11 -4 11
-10z m20 -125 c0 -19 -4 -35 -10 -35 -5 0 -10 16 -10 35 0 19 5 35 10 35 6 0
10 -16 10 -35z m137 -17 c-3 -8 -6 -5 -6 6 -1 11 2 17 5 13 3 -3 4 -12 1 -19z
m149 -13 c16 -14 25 -25 19 -25 -14 0 -72 49 -59 50 6 0 24 -11 40 -25z
m-2112 -437 c-3 -4 -9 -8 -15 -8 -5 0 -9 4 -9 8 0 5 7 9 15 9 8 0 12 -4 9 -9z
m-169 -58 c3 -5 1 -10 -4 -10 -6 0 -11 5 -11 10 0 6 2 10 4 10 3 0 8 -4 11
-10z"/>
<path d="M3680 3989 c0 -26 32 -119 40 -114 5 3 11 19 15 36 6 25 11 30 33 27
23 -3 28 -9 34 -48 5 -28 4 -46 -3 -51 -16 -9 -17 -75 -1 -71 6 1 12 -4 12
-12 0 -15 -24 -39 -32 -31 -3 3 -13 -4 -23 -15 -16 -17 -16 -20 -2 -20 8 0 17
-5 19 -11 3 -8 14 -6 37 5 27 14 32 21 26 39 -12 37 -18 107 -8 107 5 0 18 -7
30 -15 17 -12 31 -13 61 -7 40 9 72 -3 72 -27 0 -14 -15 -14 -40 1 -16 10 -22
10 -33 -5 -18 -26 -10 -85 11 -83 10 0 20 5 23 10 4 4 16 3 28 -3 21 -12 21
-12 21 144 l0 155 -105 0 c-77 0 -105 -3 -105 -12 0 -9 -3 -9 -8 -2 -10 15
-102 18 -102 3z m150 -14 c0 -8 -4 -15 -10 -15 -5 0 -10 7 -10 15 0 8 5 15 10
15 6 0 10 -7 10 -15z m80 -25 c0 -5 -4 -10 -9 -10 -6 0 -13 5 -16 10 -3 6 1
10 9 10 9 0 16 -4 16 -10z"/>
<path d="M3968 3623 c-10 -2 -18 -11 -18 -19 0 -18 -19 -18 -39 0 -10 9 -23
11 -36 6 -11 -5 -14 -9 -7 -9 19 -1 15 -48 -5 -55 -20 -8 -43 17 -43 46 0 10
-4 18 -10 18 -5 0 -10 -6 -10 -14 0 -8 -3 -22 -7 -32 -4 -12 -3 -15 5 -10 7 4
12 5 12 1 0 -10 -25 -50 -39 -61 -8 -6 -21 -26 -30 -45 -9 -19 -23 -34 -31
-34 -10 0 -15 -10 -15 -33 0 -18 -6 -36 -13 -41 -7 -4 -10 -15 -6 -25 4 -11
-1 -28 -14 -45 -19 -26 -21 -77 -3 -91 27 -21 33 -110 8 -110 -5 0 -28 -15
-51 -33 -23 -19 -62 -39 -88 -47 -27 -7 -48 -15 -48 -19 0 -3 14 -26 30 -50
17 -24 30 -50 30 -57 0 -14 6 -16 105 -33 33 -6 71 -13 85 -17 19 -4 28 0 38
16 17 27 5 42 -13 17 -9 -13 -20 -17 -34 -12 -20 6 -30 35 -12 35 4 0 6 11 4
24 -4 21 -2 23 21 19 16 -4 33 1 44 10 11 10 23 13 31 7 8 -4 25 -6 38 -4 26
5 30 -8 8 -26 -10 -8 -13 -21 -9 -33 5 -17 3 -19 -15 -14 -14 3 -24 0 -28 -9
-3 -8 -11 -14 -19 -14 -29 0 -12 -19 22 -26 26 -5 39 -3 45 7 7 11 9 11 9 -2
0 -12 13 -18 45 -22 25 -4 56 -9 70 -13 25 -6 25 -6 25 60 0 42 -4 66 -11 66
-8 0 -8 4 0 14 8 10 11 75 10 216 l-1 202 -24 -5 c-19 -3 -22 -1 -14 13 10 19
4 30 -16 30 -7 0 -10 -8 -7 -18 2 -11 -3 -36 -11 -57 -21 -49 -21 -72 -1 -55
8 6 19 9 24 6 5 -4 12 -2 16 4 11 18 25 11 25 -14 0 -13 -7 -26 -15 -30 -8 -3
-15 -10 -15 -16 0 -5 7 -10 15 -10 8 0 15 -4 15 -9 0 -5 -12 -8 -27 -7 -19 2
-32 12 -41 32 -9 21 -12 23 -8 7 7 -38 -13 -37 -31 1 -19 40 -33 47 -33 16 0
-13 -7 -20 -20 -20 -11 0 -20 7 -20 15 0 8 7 15 15 15 9 0 19 9 23 21 4 11 19
25 32 32 31 16 40 42 11 32 -15 -5 -21 -2 -21 10 0 9 -6 15 -14 13 -8 -2 -15
0 -15 5 -3 27 1 37 14 37 8 0 15 -7 15 -15 0 -8 4 -15 10 -15 16 0 50 33 50
48 0 8 6 12 15 8 8 -3 16 -2 16 2 3 18 10 58 10 67 1 6 -2 18 -6 28 -5 13 -2
17 14 17 19 0 21 6 21 55 0 30 -3 54 -7 54 -5 -1 -16 -3 -25 -6z m-44 -68 c-6
-16 -34 -21 -34 -7 0 13 11 22 26 22 8 0 11 -6 8 -15z m-24 -51 c0 -8 -10 -14
-25 -14 -27 0 -32 13 -12 34 14 16 37 3 37 -20z m-40 -49 c0 -9 6 -12 15 -9
12 5 12 1 -2 -27 l-16 -32 -19 24 c-12 14 -16 25 -9 27 6 2 11 10 11 18 0 8 5
14 10 14 6 0 10 -7 10 -15z m18 -297 c-3 -7 -17 -15 -32 -19 -15 -4 -33 -15
-40 -24 -9 -12 -19 -15 -40 -9 l-28 7 21 20 c17 17 41 25 114 36 5 0 7 -4 5
-11z m-6 -300 c-7 -7 -12 -8 -12 -2 0 6 3 14 7 17 3 4 9 5 12 2 2 -3 -1 -11
-7 -17z"/>
<path d="M2740 3540 c0 -5 4 -10 9 -10 6 0 13 5 16 10 3 6 -1 10 -9 10 -9 0
-16 -4 -16 -10z"/>
<path d="M3690 3459 c0 -5 5 -7 10 -4 6 3 10 8 10 11 0 2 -4 4 -10 4 -5 0 -10
-5 -10 -11z"/>
<path d="M2838 3438 c-2 -6 -20 -18 -39 -25 l-34 -13 35 6 c41 6 80 24 80 36
0 13 -38 9 -42 -4z"/>
<path d="M2918 3443 c7 -3 16 -2 19 1 4 3 -2 6 -13 5 -11 0 -14 -3 -6 -6z"/>
<path d="M3562 3190 c-7 -16 -13 -32 -12 -36 1 -3 -9 -18 -23 -32 -13 -15 -33
-40 -43 -56 l-18 -29 24 8 c14 4 49 22 77 41 29 19 62 34 73 34 23 0 27 29 8
48 -7 7 -20 12 -30 12 -10 0 -18 7 -18 16 0 8 -4 13 -9 10 -5 -4 -11 -2 -13 4
-2 6 -9 -3 -16 -20z"/>
<path d="M0 2802 l0 -339 25 -11 c33 -15 33 -36 0 -28 -22 6 -25 3 -25 -20 0
-25 23 -53 44 -54 4 0 5 11 2 25 l-6 24 26 -24 c31 -29 49 -32 40 -7 -4 10 2
7 14 -8 l21 -25 -7 28 c-8 34 3 35 16 1 6 -14 15 -22 20 -19 16 10 50 -5 50
-21 0 -8 4 -14 9 -14 5 0 13 -9 16 -20 4 -11 26 -30 50 -41 25 -12 47 -29 50
-40 4 -10 13 -19 21 -19 12 0 13 4 2 23 -7 12 -11 26 -10 30 1 5 -2 6 -8 2 -5
-3 -10 -1 -10 4 0 6 -3 10 -7 10 -18 -3 -31 2 -53 21 -31 27 -21 34 19 14 19
-10 43 -13 59 -10 15 4 22 3 15 -1 -8 -6 -5 -15 9 -33 19 -23 21 -23 16 -4 -4
17 -2 20 13 17 11 -3 19 0 19 6 0 6 -5 11 -11 11 -6 0 -25 11 -43 25 -18 14
-42 25 -54 25 -12 0 -36 8 -54 18 -18 10 -44 21 -58 25 -14 3 -34 13 -45 22
-11 9 -15 14 -10 12 9 -5 105 9 110 16 2 1 6 12 9 24 6 18 4 22 -8 17 -11 -4
-16 0 -16 11 0 9 -5 13 -10 10 -6 -3 -10 -1 -10 6 0 7 10 9 30 6 16 -4 32 -2
35 3 3 6 11 10 17 10 7 0 7 -4 0 -12 -7 -9 -6 -17 4 -26 8 -7 14 -8 14 -3 0
17 36 22 64 10 29 -13 31 -20 15 -36 -14 -14 6 -28 24 -16 24 15 43 12 22 -3
-20 -15 -20 -15 2 -34 13 -10 48 -21 83 -25 44 -5 63 -12 71 -26 14 -27 38
-23 69 11 l27 30 46 -19 c27 -12 49 -16 52 -11 11 18 35 10 35 -10 0 -11 6
-20 14 -20 8 0 16 -7 20 -15 10 -26 29 -17 22 10 -5 20 -3 25 13 25 23 0 36
-16 20 -25 -5 -4 -8 -13 -5 -21 4 -10 -2 -14 -19 -14 -14 0 -25 -4 -25 -10 0
-5 11 -10 24 -10 24 0 56 -32 56 -57 0 -6 -7 -18 -15 -27 -14 -13 -13 -17 6
-35 12 -11 18 -24 14 -30 -3 -6 2 -11 12 -11 20 -1 46 -32 57 -68 4 -12 12
-20 17 -16 5 3 7 10 4 15 -4 5 6 4 21 -1 46 -18 55 -7 50 57 -6 80 -17 142
-27 149 -5 3 -9 16 -9 29 0 33 -32 48 -81 40 -35 -6 -39 -5 -39 15 0 18 5 21
34 19 19 -2 38 0 42 3 3 4 -2 29 -11 57 -17 46 -17 50 -2 66 14 13 14 20 4 36
-9 15 -13 16 -15 5 -2 -8 -9 -17 -16 -19 -15 -6 -11 21 9 60 13 25 12 57 -3
123 -6 25 -13 57 -17 73 -3 18 -12 27 -24 27 -11 0 -27 7 -36 16 -9 9 -30 18
-47 20 -39 5 -44 10 -27 27 18 17 49 29 49 18 0 -15 80 -52 82 -38 7 61 2 77
-24 86 -36 13 -35 20 2 32 16 6 30 15 30 20 0 14 -36 10 -67 -8 -28 -16 -30
-16 -51 5 -12 12 -32 22 -43 22 -26 0 -102 21 -109 31 -7 9 -37 15 -285 59
-121 21 -260 46 -310 54 -50 9 -100 19 -112 21 l-23 5 0 -338z m380 66 c0 -36
-12 -31 -16 7 -1 14 2 25 7 25 5 0 9 -14 9 -32z m-50 -23 c0 -29 -15 -33 -29
-6 -11 20 -5 31 16 31 7 0 13 -11 13 -25z m-190 -49 c0 -13 -20 -26 -41 -26
-16 0 -9 28 9 33 29 8 32 7 32 -7z m140 -61 c-7 -8 -17 -15 -23 -15 -5 0 -2 9
8 20 21 23 35 19 15 -5z m358 -33 c2 -7 -3 -12 -12 -12 -9 0 -16 7 -16 16 0
17 22 14 28 -4z m-528 -10 c0 -13 -12 -22 -22 -16 -10 6 -1 24 13 24 5 0 9 -4
9 -8z m352 -184 c13 -10 17 -18 10 -18 -7 0 -10 -4 -7 -10 8 -13 4 -13 -39 5
-42 18 -49 46 -11 43 13 -1 34 -10 47 -20z m293 2 c0 -7 -6 -15 -12 -17 -8 -3
-13 4 -13 17 0 13 5 20 13 18 6 -3 12 -11 12 -18z m-79 -31 c4 -7 -2 -9 -17
-7 -13 2 -25 11 -27 21 -3 16 -1 17 17 8 11 -6 23 -16 27 -22z m24 -54 c0 -8
-4 -15 -9 -15 -13 0 -22 16 -14 24 11 11 23 6 23 -9z m128 -8 c4 -19 -6 -21
-27 -8 -16 10 -5 34 12 28 7 -2 13 -11 15 -20z m-688 -7 c0 -12 -17 -12 -45 0
-17 7 -15 9 13 9 17 1 32 -3 32 -9z m870 -23 c0 -20 -9 -25 -31 -20 -15 4 -17
8 -8 19 15 18 39 18 39 1z m30 -27 c0 -5 -5 -10 -11 -10 -5 0 -7 5 -4 10 3 6
8 10 11 10 2 0 4 -4 4 -10z m7 -122 c-3 -8 -6 -5 -6 6 -1 11 2 17 5 13 3 -3 4
-12 1 -19z m-77 -78 c0 -5 -5 -10 -11 -10 -5 0 -7 5 -4 10 3 6 8 10 11 10 2 0
4 -4 4 -10z m130 -90 c8 -5 12 -12 9 -15 -8 -8 -39 5 -39 16 0 11 11 11 30 -1z"/>
<path d="M3045 3100 c4 -6 11 -8 16 -5 14 9 11 15 -7 15 -8 0 -12 -5 -9 -10z"/>
<path d="M3130 3090 c0 -5 5 -10 11 -10 5 0 7 5 4 10 -3 6 -8 10 -11 10 -2 0
-4 -4 -4 -10z"/>
<path d="M3175 3090 c3 -5 15 -10 25 -10 10 0 22 5 25 10 4 6 -7 10 -25 10
-18 0 -29 -4 -25 -10z"/>
<path d="M3365 3040 c3 -5 8 -10 11 -10 2 0 4 5 4 10 0 6 -5 10 -11 10 -5 0
-7 -4 -4 -10z"/>
<path d="M290 2400 c-12 -7 -11 -10 4 -16 10 -4 27 -7 39 -8 13 -1 21 -8 19
-15 -4 -19 17 -31 53 -30 l30 0 -30 13 c-17 7 -36 25 -43 40 -12 26 -42 36
-42 14 0 -10 -2 -10 -8 -1 -5 8 -13 9 -22 3z"/>
<path d="M440 2250 c0 -5 7 -10 16 -10 8 0 12 5 9 10 -3 6 -10 10 -16 10 -5 0
-9 -4 -9 -10z"/>
<path d="M20 2233 c0 -5 12 -21 28 -36 66 -63 64 -77 -4 -21 l-44 35 0 -290
c0 -278 1 -292 20 -311 25 -25 25 -32 3 -28 -17 3 -18 -41 -21 -790 l-2 -792
517 2 518 3 7 48 c3 27 11 54 16 60 5 7 12 35 16 62 19 144 24 211 19 236 -4
20 2 41 19 71 14 24 33 66 43 93 19 56 34 92 45 116 34 67 71 391 48 415 -7 6
-161 41 -378 86 -57 11 -89 28 -54 28 11 0 60 -9 110 -21 198 -46 309 -67 315
-61 4 4 2 43 -5 87 l-11 79 -145 22 c-254 39 -274 44 -257 60 6 6 54 0 227
-28 36 -6 79 -12 95 -13 35 -4 335 -51 414 -65 68 -12 88 -13 76 -1 -9 7 -141
31 -255 46 -76 10 -140 27 -135 35 3 4 22 4 42 -1 72 -17 327 -59 332 -54 2 3
0 10 -6 16 -10 10 -82 23 -592 109 -194 33 -211 37 -211 51 0 15 66 10 224
-16 83 -14 154 -25 158 -25 4 0 8 33 8 74 0 63 -3 75 -17 79 -17 4 -17 5 0 6
11 1 17 9 17 27 0 22 -2 24 -15 14 -14 -12 -55 -5 -55 9 0 4 11 14 25 21 23
12 23 15 11 45 -12 28 -12 33 3 43 15 10 15 11 0 6 -11 -3 -18 2 -22 15 -6 25
-27 28 -27 5 0 -11 -6 -15 -19 -11 -12 3 -22 -1 -25 -9 -3 -8 -13 -14 -21 -14
-9 0 -13 -5 -10 -11 11 -16 -4 -59 -20 -59 -8 0 -22 9 -32 19 -21 22 -52 13
-37 -10 11 -20 -21 5 -74 57 -50 50 -48 71 8 80 30 5 37 10 33 24 -8 29 -34
33 -60 9 -12 -13 -23 -28 -23 -35 0 -19 -69 -15 -90 6 -11 11 -24 36 -30 57
-10 37 -71 113 -90 113 -6 0 -10 4 -10 10 0 5 -7 7 -16 3 -9 -3 -23 3 -35 16
-26 27 -43 28 -29 1 9 -17 8 -20 -10 -20 -14 0 -19 -4 -14 -12 5 -8 2 -9 -12
-3 -10 4 -27 7 -37 7 -10 -1 -22 10 -27 24 -12 32 -24 31 -16 -1 l7 -26 -21
21 c-12 12 -25 32 -30 46 -8 21 -13 23 -30 14 -14 -8 -20 -8 -20 0 0 6 -8 9
-18 6 -21 -7 -113 48 -110 65 2 6 -3 14 -11 17 -9 3 -11 0 -6 -9 5 -7 -8 -3
-29 9 -21 12 -42 20 -47 17 -11 -8 -49 13 -71 38 -10 11 -18 16 -18 10z m30
-193 c8 -5 11 -12 7 -16 -4 -4 -15 0 -24 9 -18 18 -8 23 17 7z m440 -61 c0 -6
-4 -7 -10 -4 -5 3 -10 11 -10 16 0 6 5 7 10 4 6 -3 10 -11 10 -16z m140 -1 c0
-6 8 -17 18 -24 13 -10 14 -15 5 -25 -10 -10 -14 -8 -20 7 -4 10 -13 25 -20
32 -18 18 -16 33 2 26 8 -4 15 -11 15 -16z m-63 -230 c-3 -8 -6 -5 -6 6 -1 11
2 17 5 13 3 -3 4 -12 1 -19z m348 -88 c75 -19 64 -19 -52 -3 -24 3 -43 10 -43
14 0 12 2 12 95 -11z m170 -40 l20 -9 -20 1 c-11 0 -31 4 -45 8 l-25 8 25 0
c14 0 34 -3 45 -8z m-1015 -50 c0 -5 -2 -10 -4 -10 -3 0 -8 5 -11 10 -3 6 -1
10 4 10 6 0 11 -4 11 -10z m405 -22 c28 -12 72 -75 60 -86 -4 -4 -12 0 -18 8
-19 24 -70 56 -99 64 -16 3 -28 11 -28 16 0 14 54 13 85 -2z m86 -51 c-10 -9
-11 -8 -5 6 3 10 9 15 12 12 3 -3 0 -11 -7 -18z m668 -133 c10 -9 -55 -3 -69
6 -10 6 -2 7 25 3 22 -3 42 -7 44 -9z m-724 -154 c-10 -11 -20 -18 -23 -15 -3
3 3 14 13 25 10 11 20 18 23 15 3 -3 -3 -14 -13 -25z m-125 -120 c-6 -11 -18
-20 -28 -20 -14 1 -13 4 7 20 29 25 34 25 21 0z m-59 -54 c-6 -8 -27 -17 -46
-20 -19 -4 -35 -11 -35 -16 0 -18 -18 -10 -52 20 -30 28 -31 30 -10 30 12 0
25 -7 28 -15 6 -16 35 -20 48 -7 10 9 70 30 75 26 2 -2 -1 -10 -8 -18z m-31
-156 c-13 -11 -29 -20 -37 -20 -7 0 -12 -6 -10 -12 1 -7 -10 -14 -25 -16 -14
-2 -32 -10 -38 -18 -7 -8 -22 -14 -34 -14 -37 0 72 81 134 100 34 10 37 4 10
-20z m-170 -70 c0 -5 -9 -10 -20 -10 -11 0 -20 5 -20 10 0 6 9 10 20 10 11 0
20 -4 20 -10z m426 -618 c-10 -2 -22 0 -28 6 -6 6 0 7 19 4 21 -5 23 -7 9 -10z
m-273 -52 c-3 -11 -7 -20 -9 -20 -2 0 -4 9 -4 20 0 11 4 20 9 20 5 0 7 -9 4
-20z"/>
<path d="M1773 2154 c4 -4 -1 -13 -11 -20 -9 -7 -14 -15 -11 -18 3 -4 16 2 29
12 22 18 22 19 4 26 -10 4 -15 4 -11 0z"/>
<path d="M300 2109 c0 -5 5 -7 10 -4 6 3 10 8 10 11 0 2 -4 4 -10 4 -5 0 -10
-5 -10 -11z"/>
<path d="M1075 1990 c-3 -5 1 -10 10 -10 9 0 13 5 10 10 -3 6 -8 10 -10 10 -2
0 -7 -4 -10 -10z"/>
<path d="M990 1950 c0 -19 -5 -30 -14 -30 -9 0 -12 7 -9 20 4 16 2 19 -11 14
-22 -8 -20 -20 7 -39 12 -8 22 -21 22 -28 0 -15 59 -21 82 -8 14 8 15 10 3 11
-8 0 -24 20 -35 45 -23 52 -45 59 -45 15z"/>
<path d="M800 1956 c0 -8 -12 -17 -26 -20 -27 -7 -26 -18 2 -22 8 -1 20 6 26
15 7 12 18 16 32 13 20 -5 20 -5 4 11 -20 21 -38 22 -38 3z"/>
<path d="M1060 1855 c0 -8 7 -15 15 -15 8 0 15 7 15 15 0 8 -7 15 -15 15 -8 0
-15 -7 -15 -15z"/>
<path d="M1140 1855 c0 -8 5 -15 10 -15 6 0 10 7 10 15 0 8 -4 15 -10 15 -5 0
-10 -7 -10 -15z"/>
<path d="M995 1840 c-3 -5 -15 -10 -26 -10 -24 0 -24 -8 1 -40 11 -14 20 -30
20 -37 0 -24 39 0 45 28 5 24 11 29 26 24 10 -4 19 -2 19 4 0 6 -11 13 -25 17
-14 3 -25 10 -25 15 0 12 -27 11 -35 -1z"/>
<path d="M1150 1800 c0 -5 5 -10 10 -10 6 0 10 5 10 10 0 6 -4 10 -10 10 -5 0
-10 -4 -10 -10z"/>
<path d="M2144 1785 c-18 -7 -35 -18 -38 -24 -4 -6 -12 -11 -17 -11 -6 0 -7 5
-3 12 5 7 3 8 -5 4 -7 -5 -10 -10 -7 -13 3 -3 -4 -19 -15 -35 -12 -16 -23 -43
-26 -61 -2 -18 -10 -36 -16 -42 -7 -5 -14 -21 -15 -35 -2 -14 -8 -30 -14 -37
-12 -15 -2 -33 18 -33 8 0 14 -9 14 -20 0 -33 38 -24 80 18 21 22 41 49 45 61
3 12 11 19 16 16 5 -4 9 -1 9 4 0 6 8 11 18 11 29 0 33 11 15 39 -9 15 -19 55
-22 93 l-6 66 -31 -13z"/>
<path d="M1607 1533 c-8 -48 2 -80 32 -107 33 -30 37 -11 12 52 -12 31 -26 66
-30 77 -6 15 -9 11 -14 -22z"/>
<path d="M1897 1445 c-9 -7 -22 -26 -28 -44 -6 -17 -15 -31 -20 -31 -5 0 -9
-7 -9 -15 0 -8 -7 -15 -15 -15 -9 0 -15 -9 -15 -24 0 -37 10 -56 31 -56 10 0
22 -7 27 -16 6 -11 16 -14 30 -10 16 5 20 15 20 49 0 23 3 70 6 104 6 67 1 78
-27 58z"/>
<path d="M1390 1259 c0 -5 5 -7 10 -4 6 3 10 8 10 11 0 2 -4 4 -10 4 -5 0 -10
-5 -10 -11z"/>
<path d="M1501 1164 c-18 -42 -29 -80 -24 -84 4 -3 40 -12 78 -19 39 -8 115
-24 170 -37 55 -13 108 -24 118 -24 25 0 21 23 -13 73 -16 25 -30 50 -30 56 0
15 -43 14 -58 -1 -17 -17 -60 26 -68 67 -5 28 -11 34 -42 39 -93 15 -96 13
-131 -70z"/>
<path d="M1897 1214 c-8 -8 1 -24 14 -24 5 0 9 7 9 15 0 15 -12 20 -23 9z"/>
<path d="M1960 1135 c0 -9 9 -15 25 -15 18 0 23 4 19 15 -4 8 -15 15 -25 15
-10 0 -19 -7 -19 -15z"/>
<path d="M3620 982 c0 -12 28 -19 105 -28 33 -3 74 -10 90 -14 17 -5 57 -11
90 -15 45 -5 57 -4 49 5 -11 11 -34 17 -109 25 -21 2 -62 9 -90 15 -82 18
-135 23 -135 12z"/>
<path d="M1962 935 c-1 -14 2 -25 7 -25 5 0 9 11 9 25 0 14 -3 25 -7 25 -4 0
-8 -11 -9 -25z"/>
<path d="M3978 913 c7 -3 16 -2 19 1 4 3 -2 6 -13 5 -11 0 -14 -3 -6 -6z"/>
<path d="M1655 563 c8 -32 13 -39 21 -30 10 9 -5 57 -17 57 -7 0 -9 -10 -4
-27z"/>
<path d="M2123 520 c-13 -5 -23 -14 -23 -19 0 -14 38 -1 44 15 3 8 4 14 3 13
-1 0 -12 -4 -24 -9z"/>
<path d="M1599 438 c0 -7 -2 -21 -4 -30 -2 -10 1 -18 6 -18 5 0 9 7 9 15 0 8
7 15 15 15 8 0 15 7 15 15 0 18 -40 20 -41 3z"/>
<path d="M2080 421 c0 -10 30 -24 37 -17 3 3 2 9 -2 15 -8 13 -35 15 -35 2z"/>
<path d="M1475 387 c-12 -10 -14 -16 -7 -21 17 -10 15 -56 -2 -56 -8 0 -17
-13 -21 -29 -4 -20 -16 -34 -36 -43 -24 -10 -29 -18 -26 -36 2 -12 1 -25 -3
-27 -15 -9 2 -45 21 -45 11 0 24 -11 31 -25 18 -40 28 -19 28 61 0 48 4 73 10
69 6 -3 10 -15 10 -26 0 -26 12 -24 43 7 32 32 90 145 80 155 -7 5 -92 29
-106 29 -2 0 -11 -6 -22 -13z m-55 -183 c0 -8 -5 -12 -10 -9 -6 4 -8 11 -5 16
9 14 15 11 15 -7z"/>
<path d="M1639 358 c0 -7 -2 -23 -3 -35 -1 -12 1 -28 6 -35 4 -8 8 6 8 35 0
26 -2 47 -5 47 -3 0 -5 -6 -6 -12z"/>
<path d="M1274 113 c-4 -32 -8 -65 -9 -73 0 -9 -4 -21 -9 -28 -4 -7 -1 -12 8
-12 9 0 16 1 17 3 4 22 10 167 6 167 -3 0 -9 -26 -13 -57z"/>
<path d="M1385 20 c-14 -15 -15 -20 -4 -20 8 0 20 9 27 20 16 26 0 26 -23 0z"/>
</g>
</svg>
